HIERARCHY
ROOT Hips
{
  OFFSET 1.44925e-005 102.336 -0.101585
  CHANNELS 6 Xposition Yposition Zposition Zrotation Xrotation Yrotation
  JOINT LeftUpLeg
  {
    OFFSET 8.9458 -8.66707 0.101652
    CHANNELS 3 Zrotation Xrotation Yrotation
    JOINT LeftLeg
    {
      OFFSET 0 -44.4227 1.3727
      CHANNELS 3 Zrotation Xrotation Yrotation
      JOINT LeftFoot
      {
        OFFSET -0.253549 -42.0924 -1.46059
        CHANNELS 3 Zrotation Xrotation Yrotation
        JOINT LeftToes
        {
          OFFSET -0.04 -4.41509 8.4991
          CHANNELS 3 Zrotation Xrotation Yrotation
          End Site
          {
            OFFSET 0.08 -0.047448 9.77979
          }
        }
      }
    }
  }
  JOINT Spine
  {
    OFFSET 0 11.8905 0
    CHANNELS 3 Zrotation Xrotation Yrotation
    JOINT Spine1
    {
      OFFSET 0 25.6574 0.127663
      CHANNELS 3 Zrotation Xrotation Yrotation
      JOINT RightShoulder
      {
        OFFSET -8.99 -0.362252 -0.22
        CHANNELS 3 Zrotation Xrotation Yrotation
        JOINT RightArm
        {
          OFFSET -10.2827 -0.00338 0.322123
          CHANNELS 3 Zrotation Xrotation Yrotation
          JOINT RightForeArm
          {
            OFFSET -26.364 0.099144 -1.42434
            CHANNELS 3 Zrotation Xrotation Yrotation
            JOINT RightHand
            {
              OFFSET -22.0324 0.085362 1.02216
              CHANNELS 3 Zrotation Xrotation Yrotation
              End Site
              {
                OFFSET -13.3284 -0.6 1.50291
              }
            }
          }
        }
      }
      JOINT LeftShoulder1
      {
        OFFSET 8.99 -0.362252 -0.22
        CHANNELS 3 Zrotation Xrotation Yrotation
        JOINT LeftArm
        {
          OFFSET 10.2827 -0.00337999 0.322123
          CHANNELS 3 Zrotation Xrotation Yrotation
          JOINT LeftForeArm
          {
            OFFSET 26.2597 0.099144 -1.42434
            CHANNELS 3 Zrotation Xrotation Yrotation
            JOINT LeftHand
            {
              OFFSET 22.0902 0.085362 1.02216
              CHANNELS 3 Zrotation Xrotation Yrotation
              End Site
              {
                OFFSET 13.419 -0.6 1.50291
              }
            }
          }
        }
      }
      JOINT Head
      {
        OFFSET 0 8.73416 0.011341
        CHANNELS 3 Zrotation Xrotation Yrotation
        End Site
        {
          OFFSET -0.29 12.7742 2.51395
        }
      }
    }
  }
  JOINT RightUpLeg
  {
    OFFSET -8.9458 -8.66707 0.101652
    CHANNELS 3 Zrotation Xrotation Yrotation
    JOINT RightLeg
    {
      OFFSET 0 -44.4227 1.3727
      CHANNELS 3 Zrotation Xrotation Yrotation
      JOINT RightFoot
      {
        OFFSET 0.253549 -42.0924 -1.46059
        CHANNELS 3 Zrotation Xrotation Yrotation
        JOINT RightToes
        {
          OFFSET 0.04 -4.41509 8.4991
          CHANNELS 3 Zrotation Xrotation Yrotation
          End Site
          {
            OFFSET -0.08 -0.137448 9.77979
          }
        }
      }
    }
  }
}
MOTION
Frames:	15
Frame Time:	0.0333333
188.928 103.091 8.96613 -3.46862 -0.228685 -93.0562 -2.20984 2.82542 1.5953 -0.11905 7.38909 22.0286 -1.91067 -11.3867 -0.0145641 -1.31415e-009 8.7524e-006 -1.4826e-008 2.03651 8.0531 0.183487 -1.83909 -2.45639 0.650371 35.3922 1.72695 0.135392 43.7929 -19.2909 8.06458 8.45554 40.982 6.98554 -9.73861 9.49747 -0.255742 -43.7434 3.53399 -3.51592 -28.8333 -12.7243 -0.0327195 -5.59775 37.4568 -13.1127 5.82328 9.61819 -0.917488 0.110078 -4.2393 -2.46207 -0.167516 3.03855 -3.60779 -0.348902 9.83247 -9.95849 3.21201 -13.5159 -0.0381387 0.0462048 0.000530889 0.662642 
188.915 103.091 8.95139 -3.46502 -0.233638 -93.0987 -2.20896 2.85185 1.60029 -0.120671 7.34881 22.0689 -1.90185 -11.379 -0.0145637 -1.31415e-009 8.7524e-006 -1.4826e-008 2.07528 8.03761 0.181834 -1.95283 -2.49809 0.667677 35.62 1.73803 0.141602 43.5566 -19.3351 8.08559 8.48234 41.025 6.9287 -9.66856 9.52167 -0.536338 -43.6266 3.51884 -3.50367 -28.877 -12.5682 -0.0425807 -5.55377 37.2755 -13.2073 5.82328 9.61819 -0.917488 -0.169843 -4.30766 -2.77495 -0.16817 3.04104 -3.59257 -0.364417 9.83224 -9.92601 3.23673 -13.5237 -0.0381399 0.0462048 0.000530889 0.662642 
188.89 103.091 8.92354 -3.4818 -0.242937 -93.1033 -2.20197 2.91128 1.61365 -0.124557 7.29875 22.064 -1.90754 -11.3647 -0.014563 -1.31415e-009 8.7524e-006 -1.4826e-008 2.05788 8.00049 0.175729 -1.98671 -2.48306 0.666061 35.7788 1.74849 0.152399 43.3853 -19.4952 8.17869 8.61252 41.1308 6.69962 -9.75386 9.529 -0.681971 -43.5757 3.51175 -3.49636 -28.874 -12.2186 -0.0836548 -5.42164 36.8651 -13.459 5.82328 9.61819 -0.917488 -0.277463 -4.30912 -3.02655 -0.165967 3.09297 -3.59826 -0.361789 9.80442 -9.92053 3.25646 -13.5399 -0.0381425 0.0462048 0.000530889 0.662642 
188.866 103.091 8.89857 -3.50902 -0.251306 -93.0359 -2.1894 2.95476 1.62357 -0.125077 7.29379 21.9859 -1.92104 -11.3619 -0.0145628 -1.31415e-009 8.7524e-006 -1.4826e-008 1.98178 7.95606 0.175809 -1.87351 -2.40866 0.645744 35.6635 1.74932 0.164455 43.4766 -19.7132 8.28448 8.77273 41.3851 6.39893 -9.86713 9.50316 -0.403767 -43.7042 3.52376 -3.49333 -28.7572 -11.8319 -0.159195 -5.29807 36.4053 -13.7148 5.82328 9.61819 -0.917488 -0.198457 -4.29858 -3.104 -0.161016 3.17346 -3.62018 -0.343605 9.75044 -9.99039 3.25269 -13.5455 -0.0381434 0.0462048 0.000530889 0.662642 
188.853 103.091 8.88442 -3.52007 -0.252684 -92.9629 -2.17645 2.95322 1.62617 -0.121626 7.33003 21.905 -1.92429 -11.3758 -0.0145636 -1.31415e-009 8.7524e-006 -1.4826e-008 1.9419 7.9659 0.19536 -1.75491 -2.41475 0.645593 35.4206 1.74436 0.174433 43.6636 -19.8646 8.28148 8.83324 41.7116 6.23847 -9.75834 9.47884 -0.0200895 -43.9077 3.54091 -3.49181 -28.5793 -11.4958 -0.226716 -5.2582 36.0021 -13.8642 5.82328 9.61819 -0.917488 -0.320915 -4.39655 -3.23511 -0.143664 3.22089 -3.61731 -0.343532 9.70706 -10.0801 3.23668 -13.5322 -0.0381413 0.0462048 0.000530889 0.662642 
188.847 103.091 8.87475 -3.52278 -0.24597 -92.9404 -2.15916 2.94009 1.63733 -0.123188 7.36921 21.868 -1.92701 -11.397 -0.0145646 -1.31415e-009 8.7524e-006 -1.4826e-008 1.96354 8.04334 0.230931 -1.71516 -2.51921 0.67613 35.2375 1.7401 0.18109 43.7683 -19.9297 8.16655 8.75478 41.9825 6.28957 -9.39411 9.48481 0.12976 -44.0595 3.55145 -3.49162 -28.4394 -11.212 -0.267307 -5.25641 35.659 -13.9563 5.82328 9.61819 -0.917488 -0.590542 -4.50081 -3.39921 -0.125538 3.22775 -3.60569 -0.345502 9.70796 -10.0956 3.21715 -13.5279 -0.0381406 0.0462048 0.000530889 0.662642 
188.843 103.091 8.86183 -3.54409 -0.240673 -92.945 -2.13864 2.95699 1.66447 -0.136332 7.39201 21.8474 -1.94541 -11.415 -0.0145656 -1.31415e-009 8.7524e-006 -1.4826e-008 1.98334 8.11453 0.25988 -1.70561 -2.57884 0.70457 35.1408 1.73813 0.184743 43.8033 -19.984 8.06693 8.6406 42.1279 6.40377 -9.05339 9.50589 0.0614786 -44.1382 3.55692 -3.49264 -28.3815 -10.9639 -0.305555 -5.2122 35.3805 -14.0797 5.82328 9.61819 -0.917488 -0.610911 -4.47743 -3.34679 -0.132585 3.24013 -3.63546 -0.312176 9.74173 -10.0312 3.19775 -13.5591 -0.0381456 0.0462048 0.000530889 0.662642 
188.842 103.091 8.84918 -3.57765 -0.247961 -92.9351 -2.13003 2.99133 1.68536 -0.152696 7.40078 21.8189 -1.96744 -11.4227 -0.014566 -1.31415e-009 8.7524e-006 -1.4826e-008 1.98765 8.14195 0.261724 -1.71179 -2.5607 0.708276 35.0909 1.73704 0.184454 43.8331 -20.0506 8.05208 8.62768 42.0925 6.40595 -9.11176 9.51452 -0.0995124 -44.1556 3.55874 -3.49473 -28.3901 -10.7361 -0.330453 -5.12368 35.1756 -14.235 5.82328 9.61819 -0.917488 -0.420918 -4.46188 -3.10009 -0.159003 3.27208 -3.69008 -0.269629 9.76732 -9.97335 3.1854 -13.6023 -0.0381526 0.0462048 0.000530889 0.662642 
188.843 103.091 8.84328 -3.59368 -0.264249 -92.9165 -2.14188 3.00877 1.67866 -0.156148 7.39419 21.8067 -1.97259 -11.4171 -0.0145657 -1.31415e-009 8.7524e-006 -1.4826e-008 2.03727 8.18905 0.238197 -1.79528 -2.60598 0.701152 35.0886 1.73628 0.18247 43.8447 -20.0825 8.05771 8.72122 41.9186 6.29718 -9.56706 9.50828 -0.297981 -44.0924 3.55312 -3.49775 -28.4518 -10.5512 -0.28933 -5.04723 35.0305 -14.3608 5.82328 9.61819 -0.917488 -0.48246 -4.67452 -2.98183 -0.174277 3.28975 -3.71017 -0.268044 9.77032 -9.97773 3.17596 -13.6167 -0.0381549 0.0462048 0.000530889 0.662642 
188.844 103.091 8.8412 -3.59116 -0.275127 -92.9071 -2.15972 3.01112 1.65687 -0.142009 7.37516 21.8185 -1.96753 -11.4034 -0.014565 -1.31415e-009 8.7524e-006 -1.4826e-008 2.13107 8.29122 0.208249 -1.92676 -2.74705 0.69616 35.1028 1.73565 0.179885 43.8448 -20.0904 8.03241 8.79381 41.8588 6.20441 -9.90329 9.50079 -0.394589 -43.9735 3.54561 -3.50177 -28.5613 -10.5008 -0.191642 -5.01146 34.9724 -14.4151 5.82328 9.61819 -0.917488 -0.919589 -5.07579 -3.12032 -0.17514 3.28264 -3.70478 -0.28177 9.77247 -10.0102 3.15093 -13.6056 -0.0381531 0.0462048 0.000530889 0.662642 
188.845 103.091 8.83621 -3.59435 -0.277223 -92.8933 -2.16785 3.01893 1.64377 -0.122179 7.36196 21.8181 -1.97221 -11.3909 -0.0145643 -1.31415e-009 8.7524e-006 -1.4826e-008 2.17926 8.38093 0.188512 -1.97549 -2.83034 0.685152 35.0515 1.73516 0.177741 43.906 -20.1483 8.01933 8.75841 42.1056 6.19645 -9.69691 9.49874 -0.24553 -43.8957 3.54893 -3.51159 -28.6798 -10.6198 -0.117382 -5.00393 35.0577 -14.3992 5.82328 9.61819 -0.917488 -1.38952 -5.46557 -3.32631 -0.185739 3.28155 -3.72961 -0.25383 9.78426 -10.0226 3.11297 -13.6062 -0.0381532 0.0462048 0.000530889 0.662642 
188.85 103.091 8.8288 -3.60409 -0.282883 -92.8635 -2.17239 3.02571 1.63725 -0.109919 7.36128 21.7917 -1.98733 -11.3804 -0.0145638 -1.31415e-009 8.7524e-006 -1.4826e-008 2.15003 8.41351 0.182772 -1.91853 -2.80432 0.669618 34.9332 1.73481 0.175674 44.033 -20.2533 8.03921 8.66784 42.448 6.23795 -9.20043 9.50296 0.00445209 -43.9064 3.55472 -3.5261 -28.7519 -10.7893 -0.0969331 -5.02663 35.2557 -14.325 5.82328 9.61819 -0.917488 -1.66171 -5.74551 -3.46721 -0.205924 3.29351 -3.76948 -0.211929 9.78976 -10.0234 3.09622 -13.6272 -0.0381566 0.0462048 0.000530889 0.662642 
188.861 103.091 8.82255 -3.6001 -0.297091 -92.8349 -2.18224 3.01501 1.62368 -0.106785 7.35447 21.7695 -1.99841 -11.3644 -0.014563 -1.31415e-009 8.7524e-006 -1.4826e-008 2.12446 8.445 0.180475 -1.88881 -2.81326 0.669629 34.8621 1.73457 0.173322 44.1183 -20.3151 8.02453 8.61114 42.5305 6.28842 -8.95661 9.51019 0.0654308 -43.9302 3.55583 -3.53114 -28.7767 -10.9452 -0.0853603 -5.11714 35.5012 -14.1667 5.82328 9.61819 -0.917488 -1.77493 -5.83836 -3.57784 -0.206745 3.28842 -3.75941 -0.22552 9.78241 -10.0503 3.11675 -13.6377 -0.0381583 0.0462048 0.000530889 0.662642 
188.875 103.091 8.81541 -3.58475 -0.307187 -92.8152 -2.18575 2.99654 1.61113 -0.107638 7.33496 21.7572 -1.99702 -11.3456 -0.014562 -1.31415e-009 8.7524e-006 -1.4826e-008 2.15852 8.51215 0.180365 -1.96292 -2.92066 0.687814 34.9153 1.73446 0.170714 44.0911 -20.3032 7.93992 8.58729 42.3605 6.3506 -9.06741 9.51466 -0.0732232 -43.8843 3.5485 -3.52343 -28.8101 -11.2482 -0.0623912 -5.28126 35.8627 -13.891 5.82328 9.61819 -0.917488 -1.68937 -5.6106 -3.59828 -0.183424 3.26225 -3.71068 -0.273553 9.77915 -10.1066 3.14524 -13.621 -0.0381556 0.0462048 0.000530889 0.662642 
188.884 103.091 8.80454 -3.58139 -0.303992 -92.7856 -2.17031 2.98719 1.61731 -0.110679 7.33272 21.7225 -1.98609 -11.3407 -0.0145618 -1.31415e-009 8.7524e-006 -1.4826e-008 2.19921 8.55845 0.18267 -2.04974 -2.99865 0.699426 35.0238 1.73445 0.168611 44.0212 -20.2885 7.85808 8.55291 42.2269 6.41242 -9.23578 9.51493 -0.18656 -43.8101 3.5399 -3.51579 -28.8659 -11.782 -0.0460057 -5.44312 36.3999 -13.5652 5.82328 9.61819 -0.917488 -1.35286 -5.14151 -3.42039 -0.168461 3.25126 -3.70167 -0.272027 9.7873 -10.1498 3.15235 -13.6062 -0.0381532 0.0462048 0.000530889 0.662642 
